<svg xmlns="http://www.w3.org/2000/svg" xmlns:xlink="http://www.w3.org/1999/xlink" width="1000" zoomAndPan="magnify" viewBox="0 0 750 374.999991" height="500" preserveAspectRatio="xMidYMid meet" version="1.0"><defs><g/><clipPath id="305f0e00d5"><path d="M 580.035156 37.5 L 712.785156 37.5 L 712.785156 170.25 L 580.035156 170.25 Z M 580.035156 37.5 " clip-rule="nonzero"/></clipPath></defs><rect x="-75" width="900" fill="#ffffff" y="-37.499999" height="449.999989" fill-opacity="1"/><rect x="-75" width="900" fill="#ffffff" y="-37.499999" height="449.999989" fill-opacity="1"/><g fill="#282a29" fill-opacity="1"><g transform="translate(0.000009, 164.178226)"><g><path d="M 71.5625 2.28125 C 60.6875 2.28125 51.210938 0.410156 43.140625 -3.328125 C 35.078125 -7.078125 28.414062 -12.164062 23.15625 -18.59375 C 17.894531 -25.019531 13.976562 -32.382812 11.40625 -40.6875 C 8.832031 -48.988281 7.546875 -57.757812 7.546875 -67 C 7.546875 -76.238281 8.832031 -84.976562 11.40625 -93.21875 C 13.976562 -101.46875 17.894531 -108.804688 23.15625 -115.234375 C 28.414062 -121.671875 35.078125 -126.726562 43.140625 -130.40625 C 51.210938 -134.09375 60.6875 -135.9375 71.5625 -135.9375 C 82.4375 -135.9375 91.878906 -134.09375 99.890625 -130.40625 C 107.898438 -126.726562 114.566406 -121.671875 119.890625 -115.234375 C 125.210938 -108.804688 129.160156 -101.46875 131.734375 -93.21875 C 134.304688 -84.976562 135.59375 -76.238281 135.59375 -67 C 135.59375 -57.757812 134.304688 -48.988281 131.734375 -40.6875 C 129.160156 -32.382812 125.210938 -25.019531 119.890625 -18.59375 C 114.566406 -12.164062 107.898438 -7.078125 99.890625 -3.328125 C 91.878906 0.410156 82.4375 2.28125 71.5625 2.28125 Z M 71.5625 -17.71875 C 80.445312 -17.71875 87.929688 -19.820312 94.015625 -24.03125 C 100.097656 -28.238281 104.71875 -34.054688 107.875 -41.484375 C 111.03125 -48.910156 112.609375 -57.414062 112.609375 -67 C 112.609375 -76.59375 111.03125 -85.070312 107.875 -92.4375 C 104.71875 -99.800781 100.097656 -105.585938 94.015625 -109.796875 C 87.929688 -114.015625 80.445312 -116.125 71.5625 -116.125 C 62.789062 -116.125 55.335938 -114.015625 49.203125 -109.796875 C 43.066406 -105.585938 38.414062 -99.800781 35.25 -92.4375 C 32.09375 -85.070312 30.515625 -76.59375 30.515625 -67 C 30.515625 -57.414062 32.09375 -48.910156 35.25 -41.484375 C 38.414062 -34.054688 43.066406 -28.238281 49.203125 -24.03125 C 55.335938 -19.820312 62.789062 -17.71875 71.5625 -17.71875 Z M 71.5625 -17.71875 "/></g></g></g><g fill="#282a29" fill-opacity="1"><g transform="translate(130.142209, 164.178226)"><g><path d="M 26.484375 0 L 2.625 0 L 36.65625 -49.296875 L 2.625 -98.046875 L 26.484375 -98.046875 L 49.8125 -63.328125 L 73.3125 -98.046875 L 97.703125 -98.046875 L 62.96875 -49.296875 L 97.703125 0 L 73.5 0 L 49.8125 -34.90625 Z M 26.484375 0 "/></g></g></g><g fill="#282a29" fill-opacity="1"><g transform="translate(217.311317, 164.178226)"><g><path d="M 40.515625 0 L 19.640625 0 L 19.640625 -81.03125 L 4.203125 -81.03125 L 4.203125 -98.046875 L 19.640625 -98.046875 L 19.640625 -108.21875 C 19.640625 -116.519531 21.890625 -122.863281 26.390625 -127.25 C 30.898438 -131.632812 37.421875 -133.828125 45.953125 -133.828125 L 59.984375 -133.828125 L 59.984375 -116.828125 L 50.875 -116.828125 C 47.59375 -116.828125 45.046875 -115.945312 43.234375 -114.1875 C 41.421875 -112.4375 40.515625 -109.457031 40.515625 -105.25 L 40.515625 -98.046875 L 59.984375 -98.046875 L 59.984375 -81.03125 L 40.515625 -81.03125 Z M 40.515625 0 "/></g></g></g><g fill="#282a29" fill-opacity="1"><g transform="translate(267.821699, 164.178226)"><g><path d="M 56.65625 1.921875 C 46.945312 1.921875 38.378906 -0.238281 30.953125 -4.5625 C 23.535156 -8.882812 17.75 -14.90625 13.59375 -22.625 C 9.4375 -30.34375 7.359375 -39.289062 7.359375 -49.46875 C 7.359375 -59.289062 9.4375 -68 13.59375 -75.59375 C 17.75 -83.195312 23.535156 -89.132812 30.953125 -93.40625 C 38.378906 -97.675781 46.945312 -99.8125 56.65625 -99.8125 C 66.363281 -99.8125 74.925781 -97.675781 82.34375 -93.40625 C 89.769531 -89.132812 95.585938 -83.195312 99.796875 -75.59375 C 104.015625 -68 106.125 -59.289062 106.125 -49.46875 C 106.125 -39.40625 104.046875 -30.515625 99.890625 -22.796875 C 95.742188 -15.078125 89.957031 -9.023438 82.53125 -4.640625 C 75.101562 -0.265625 66.476562 1.921875 56.65625 1.921875 Z M 56.65625 -16.140625 C 62.15625 -16.140625 67.035156 -17.570312 71.296875 -20.4375 C 75.566406 -23.300781 78.898438 -27.242188 81.296875 -32.265625 C 83.691406 -37.296875 84.890625 -43.03125 84.890625 -49.46875 C 84.890625 -55.664062 83.691406 -61.21875 81.296875 -66.125 C 78.898438 -71.039062 75.566406 -74.898438 71.296875 -77.703125 C 67.035156 -80.515625 62.15625 -81.921875 56.65625 -81.921875 C 51.15625 -81.921875 46.269531 -80.546875 42 -77.796875 C 37.738281 -75.046875 34.410156 -71.210938 32.015625 -66.296875 C 29.617188 -61.390625 28.421875 -55.78125 28.421875 -49.46875 C 28.421875 -42.914062 29.644531 -37.125 32.09375 -32.09375 C 34.550781 -27.070312 37.914062 -23.15625 42.1875 -20.34375 C 46.457031 -17.539062 51.28125 -16.140625 56.65625 -16.140625 Z M 56.65625 -16.140625 "/></g></g></g><g fill="#282a29" fill-opacity="1"><g transform="translate(368.145786, 164.178226)"><g><path d="M 32.09375 0 L 11.40625 0 L 11.40625 -98.046875 L 32.09375 -98.046875 L 32.09375 -85.78125 C 36.1875 -91.039062 40.539062 -94.691406 45.15625 -96.734375 C 49.78125 -98.785156 55.132812 -99.8125 61.21875 -99.8125 L 63.5 -99.8125 L 63.5 -79.640625 L 58.234375 -79.640625 C 50.398438 -79.640625 44.378906 -77.53125 40.171875 -73.3125 C 34.785156 -68.289062 32.09375 -59.640625 32.09375 -47.359375 Z M 32.09375 0 "/></g></g></g><g fill="#282a29" fill-opacity="1"><g transform="translate(421.988764, 164.178226)"><g><path d="M 50.875 1.921875 C 42.332031 1.921875 34.816406 -0.238281 28.328125 -4.5625 C 21.835938 -8.882812 16.78125 -14.875 13.15625 -22.53125 C 9.53125 -30.195312 7.71875 -39 7.71875 -48.9375 C 7.71875 -58.988281 9.53125 -67.816406 13.15625 -75.421875 C 16.78125 -83.023438 21.835938 -88.988281 28.328125 -93.3125 C 34.816406 -97.644531 42.332031 -99.8125 50.875 -99.8125 C 56.832031 -99.8125 62.117188 -98.753906 66.734375 -96.640625 C 71.359375 -94.535156 75.832031 -90.5625 80.15625 -84.71875 L 80.15625 -133.828125 L 100.859375 -133.828125 L 100.859375 0 L 80.15625 0 L 80.15625 -13.328125 C 75.832031 -7.597656 71.421875 -3.625 66.921875 -1.40625 C 62.421875 0.8125 57.070312 1.921875 50.875 1.921875 Z M 55.078125 -15.96875 C 60.453125 -15.96875 65.15625 -17.367188 69.1875 -20.171875 C 73.226562 -22.972656 76.414062 -26.859375 78.75 -31.828125 C 81.09375 -36.804688 82.265625 -42.507812 82.265625 -48.9375 C 82.265625 -55.363281 81.09375 -61.0625 78.75 -66.03125 C 76.414062 -71.007812 73.226562 -74.898438 69.1875 -77.703125 C 65.15625 -80.515625 60.453125 -81.921875 55.078125 -81.921875 C 49.703125 -81.921875 45.023438 -80.484375 41.046875 -77.609375 C 37.066406 -74.742188 33.992188 -70.828125 31.828125 -65.859375 C 29.671875 -60.890625 28.59375 -55.25 28.59375 -48.9375 C 28.59375 -42.625 29.671875 -36.984375 31.828125 -32.015625 C 33.992188 -27.046875 37.066406 -23.128906 41.046875 -20.265625 C 45.023438 -17.398438 49.703125 -15.96875 55.078125 -15.96875 Z M 55.078125 -15.96875 "/></g></g></g><g fill="#282a29" fill-opacity="1"><g transform="translate(521.173578, 164.178226)"><g/></g></g><g fill="#282a29" fill-opacity="1"><g transform="translate(0.000009, 321.730401)"><g><path d="M 63.84375 2.28125 C 51.570312 2.28125 41.578125 0.207031 33.859375 -3.9375 C 26.140625 -8.09375 20.4375 -13.941406 16.75 -21.484375 C 13.0625 -29.023438 11.21875 -37.765625 11.21875 -47.703125 L 11.21875 -133.828125 L 33.5 -133.828125 L 33.5 -47.703125 C 33.5 -38.816406 35.78125 -31.566406 40.34375 -25.953125 C 44.90625 -20.347656 52.738281 -17.546875 63.84375 -17.546875 C 74.957031 -17.546875 82.765625 -20.347656 87.265625 -25.953125 C 91.765625 -31.566406 94.015625 -38.816406 94.015625 -47.703125 L 94.015625 -133.828125 L 116.296875 -133.828125 L 116.296875 -47.703125 C 116.296875 -37.765625 114.484375 -29.023438 110.859375 -21.484375 C 107.234375 -13.941406 101.5625 -8.09375 93.84375 -3.9375 C 86.125 0.207031 76.125 2.28125 63.84375 2.28125 Z M 63.84375 2.28125 "/></g></g></g><g fill="#282a29" fill-opacity="1"><g transform="translate(114.531578, 321.730401)"><g><path d="M 32.09375 0 L 11.40625 0 L 11.40625 -98.046875 L 32.09375 -98.046875 L 32.09375 -84.71875 C 36.425781 -90.5625 40.753906 -94.535156 45.078125 -96.640625 C 49.398438 -98.753906 54.195312 -99.8125 59.46875 -99.8125 C 68 -99.8125 74.570312 -98.257812 79.1875 -95.15625 C 83.8125 -92.0625 87.234375 -88.289062 89.453125 -83.84375 C 91.679688 -79.519531 92.96875 -75.101562 93.3125 -70.59375 C 93.664062 -66.09375 93.84375 -61.679688 93.84375 -57.359375 L 93.84375 0 L 72.96875 0 L 72.96875 -57.359375 C 72.96875 -67.296875 71.332031 -74.078125 68.0625 -77.703125 C 65.25 -80.859375 60.804688 -82.4375 54.734375 -82.4375 C 47.597656 -82.4375 42.273438 -80.332031 38.765625 -76.125 C 36.421875 -73.550781 34.722656 -70.015625 33.671875 -65.515625 C 32.617188 -61.015625 32.09375 -54.90625 32.09375 -47.1875 Z M 32.09375 0 "/></g></g></g><g fill="#282a29" fill-opacity="1"><g transform="translate(205.734892, 321.730401)"><g><path d="M 21.75 -110.6875 C 18.125 -110.6875 14.96875 -111.882812 12.28125 -114.28125 C 9.59375 -116.675781 8.25 -119.6875 8.25 -123.3125 C 8.25 -127.050781 9.59375 -130.085938 12.28125 -132.421875 C 14.96875 -134.765625 18.125 -135.9375 21.75 -135.9375 C 25.488281 -135.9375 28.671875 -134.765625 31.296875 -132.421875 C 33.929688 -130.085938 35.25 -127.050781 35.25 -123.3125 C 35.25 -119.6875 33.929688 -116.675781 31.296875 -114.28125 C 28.671875 -111.882812 25.488281 -110.6875 21.75 -110.6875 Z M 32.09375 0 L 11.40625 0 L 11.40625 -98.046875 L 32.09375 -98.046875 Z M 32.09375 0 "/></g></g></g><g fill="#282a29" fill-opacity="1"><g transform="translate(235.89885, 321.730401)"><g><path d="M 55.421875 0 L 38.59375 0 L 2.453125 -98.046875 L 24.90625 -98.046875 L 46.828125 -32.625 L 69.453125 -98.046875 L 91.734375 -98.046875 Z M 55.421875 0 "/></g></g></g><g fill="#282a29" fill-opacity="1"><g transform="translate(316.92889, 321.730401)"><g><path d="M 56.3125 1.921875 C 46.488281 1.921875 37.921875 -0.265625 30.609375 -4.640625 C 23.296875 -9.023438 17.59375 -15.046875 13.5 -22.703125 C 9.40625 -30.367188 7.359375 -39 7.359375 -48.59375 C 7.359375 -55.019531 8.378906 -61.273438 10.421875 -67.359375 C 12.472656 -73.441406 15.515625 -78.9375 19.546875 -83.84375 C 23.585938 -88.757812 28.617188 -92.648438 34.640625 -95.515625 C 40.660156 -98.378906 47.707031 -99.8125 55.78125 -99.8125 C 64.195312 -99.8125 72.117188 -98.023438 79.546875 -94.453125 C 86.972656 -90.890625 92.992188 -85.421875 97.609375 -78.046875 C 102.234375 -70.679688 104.546875 -61.328125 104.546875 -49.984375 L 104.546875 -44.734375 L 28.421875 -44.734375 C 28.648438 -42.859375 29.054688 -40.957031 29.640625 -39.03125 C 30.222656 -37.101562 30.925781 -35.378906 31.75 -33.859375 C 34.082031 -28.359375 37.441406 -24.03125 41.828125 -20.875 C 46.210938 -17.71875 51.210938 -16.140625 56.828125 -16.140625 C 63.023438 -16.140625 68.226562 -17.773438 72.4375 -21.046875 C 76.644531 -24.316406 79.628906 -28.117188 81.390625 -32.453125 L 102.78125 -32.453125 C 100.914062 -26.253906 97.960938 -20.519531 93.921875 -15.25 C 89.890625 -9.988281 84.773438 -5.8125 78.578125 -2.71875 C 72.378906 0.375 64.957031 1.921875 56.3125 1.921875 Z M 29.640625 -61.046875 L 82.96875 -61.046875 C 82.851562 -62.441406 82.53125 -63.957031 82 -65.59375 C 81.476562 -67.238281 80.75 -68.820312 79.8125 -70.34375 C 77.46875 -74.550781 74.21875 -77.707031 70.0625 -79.8125 C 65.914062 -81.914062 61.390625 -82.96875 56.484375 -82.96875 C 45.953125 -82.96875 38.175781 -78.757812 33.15625 -70.34375 C 32.101562 -68.820312 31.3125 -67.210938 30.78125 -65.515625 C 30.257812 -63.816406 29.878906 -62.328125 29.640625 -61.046875 Z M 29.640625 -61.046875 "/></g></g></g><g fill="#282a29" fill-opacity="1"><g transform="translate(415.499018, 321.730401)"><g><path d="M 32.09375 0 L 11.40625 0 L 11.40625 -98.046875 L 32.09375 -98.046875 L 32.09375 -85.78125 C 36.1875 -91.039062 40.539062 -94.691406 45.15625 -96.734375 C 49.78125 -98.785156 55.132812 -99.8125 61.21875 -99.8125 L 63.5 -99.8125 L 63.5 -79.640625 L 58.234375 -79.640625 C 50.398438 -79.640625 44.378906 -77.53125 40.171875 -73.3125 C 34.785156 -68.289062 32.09375 -59.640625 32.09375 -47.359375 Z M 32.09375 0 "/></g></g></g><g fill="#282a29" fill-opacity="1"><g transform="translate(469.341996, 321.730401)"><g><path d="M 52.625 1.921875 C 44.90625 1.921875 37.738281 0.664062 31.125 -1.84375 C 24.519531 -4.351562 19.054688 -8.125 14.734375 -13.15625 C 10.410156 -18.1875 7.660156 -24.617188 6.484375 -32.453125 L 27.359375 -32.453125 C 28.765625 -26.953125 31.628906 -22.648438 35.953125 -19.546875 C 40.285156 -16.453125 45.84375 -14.90625 52.625 -14.90625 C 58.113281 -14.90625 62.640625 -15.988281 66.203125 -18.15625 C 69.773438 -20.320312 71.5625 -23.390625 71.5625 -27.359375 C 71.5625 -30.753906 70.421875 -33.359375 68.140625 -35.171875 C 65.859375 -36.984375 62.847656 -38.441406 59.109375 -39.546875 C 55.367188 -40.660156 51.335938 -41.628906 47.015625 -42.453125 C 42.796875 -43.265625 38.550781 -44.226562 34.28125 -45.34375 C 30.019531 -46.457031 26.078125 -48.003906 22.453125 -49.984375 C 18.828125 -51.972656 15.929688 -54.632812 13.765625 -57.96875 C 11.609375 -61.300781 10.53125 -65.660156 10.53125 -71.046875 C 10.53125 -77.585938 12.222656 -82.992188 15.609375 -87.265625 C 19.003906 -91.535156 23.535156 -94.691406 29.203125 -96.734375 C 34.878906 -98.785156 41.046875 -99.8125 47.703125 -99.8125 C 58.816406 -99.8125 68.144531 -96.972656 75.6875 -91.296875 C 83.226562 -85.628906 87.875 -77.648438 89.625 -67.359375 L 70.15625 -67.359375 C 68.632812 -72.847656 65.859375 -76.847656 61.828125 -79.359375 C 57.796875 -81.878906 53.085938 -83.140625 47.703125 -83.140625 C 42.441406 -83.140625 38.289062 -82.144531 35.25 -80.15625 C 32.21875 -78.164062 30.703125 -75.476562 30.703125 -72.09375 C 30.703125 -69.164062 31.8125 -66.851562 34.03125 -65.15625 C 36.25 -63.46875 39.140625 -62.15625 42.703125 -61.21875 C 46.273438 -60.28125 50.164062 -59.398438 54.375 -58.578125 C 58.695312 -57.765625 63.082031 -56.800781 67.53125 -55.6875 C 71.976562 -54.582031 76.039062 -53.003906 79.71875 -50.953125 C 83.40625 -48.910156 86.390625 -46.160156 88.671875 -42.703125 C 90.953125 -39.253906 92.09375 -34.726562 92.09375 -29.125 C 92.09375 -19.882812 88.640625 -12.398438 81.734375 -6.671875 C 74.835938 -0.941406 65.132812 1.921875 52.625 1.921875 Z M 52.625 1.921875 "/></g></g></g><g fill="#282a29" fill-opacity="1"><g transform="translate(555.984904, 321.730401)"><g><path d="M 21.75 -110.6875 C 18.125 -110.6875 14.96875 -111.882812 12.28125 -114.28125 C 9.59375 -116.675781 8.25 -119.6875 8.25 -123.3125 C 8.25 -127.050781 9.59375 -130.085938 12.28125 -132.421875 C 14.96875 -134.765625 18.125 -135.9375 21.75 -135.9375 C 25.488281 -135.9375 28.671875 -134.765625 31.296875 -132.421875 C 33.929688 -130.085938 35.25 -127.050781 35.25 -123.3125 C 35.25 -119.6875 33.929688 -116.675781 31.296875 -114.28125 C 28.671875 -111.882812 25.488281 -110.6875 21.75 -110.6875 Z M 32.09375 0 L 11.40625 0 L 11.40625 -98.046875 L 32.09375 -98.046875 Z M 32.09375 0 "/></g></g></g><g fill="#282a29" fill-opacity="1"><g transform="translate(586.148838, 321.730401)"><g><path d="M 59.640625 0 L 42.09375 0 C 34.84375 0 29.203125 -1.664062 25.171875 -5 C 21.140625 -8.332031 19.125 -14.207031 19.125 -22.625 L 19.125 -80.859375 L 4.390625 -80.859375 L 4.390625 -98.046875 L 19.125 -98.046875 L 19.125 -133.828125 L 39.8125 -133.828125 L 39.8125 -98.046875 L 59.8125 -98.046875 L 59.8125 -80.859375 L 39.8125 -80.859375 L 39.8125 -28.421875 C 39.8125 -25.265625 40.304688 -22.628906 41.296875 -20.515625 C 42.296875 -18.410156 44.960938 -17.359375 49.296875 -17.359375 L 59.640625 -17.359375 Z M 59.640625 0 "/></g></g></g><g fill="#282a29" fill-opacity="1"><g transform="translate(638.93944, 321.730401)"><g><path d="M 28.0625 35.78125 L 12.28125 35.78125 L 12.28125 18.0625 L 22.625 18.0625 C 26.019531 18.0625 28.679688 17.5625 30.609375 16.5625 C 32.535156 15.570312 34.257812 13.09375 35.78125 9.125 L 39.296875 -0.34375 L 2.453125 -98.046875 L 24.90625 -98.046875 L 50.171875 -24.5625 L 72.96875 -98.046875 L 95.421875 -98.046875 L 55.421875 14.203125 C 52.503906 22.390625 49.023438 28.03125 44.984375 31.125 C 40.953125 34.226562 35.3125 35.78125 28.0625 35.78125 Z M 28.0625 35.78125 "/></g></g></g><g clip-path="url(#305f0e00d5)"><path fill="#000000" d="M 712.769531 37.5 L 712.769531 103.871094 L 646.386719 37.5 Z M 580.035156 37.5 L 646.386719 103.871094 L 646.386719 37.5 Z M 712.769531 170.234375 L 712.769531 103.871094 L 646.386719 103.871094 Z M 646.386719 170.234375 L 646.386719 103.871094 L 580.035156 103.871094 Z M 646.386719 170.234375 " fill-opacity="1" fill-rule="nonzero"/></g></svg>